<svg id="Group_1170" data-name="Group 1170" xmlns="http://www.w3.org/2000/svg" xmlns:xlink="http://www.w3.org/1999/xlink" width="60" height="60" viewBox="0 0 60 60">
  <defs>
    <clipPath id="clip-path">
      <rect id="Rectangle_136" data-name="Rectangle 136" width="60" height="60" fill="#fff"/>
    </clipPath>
  </defs>
  <g id="Group_1169" data-name="Group 1169" clip-path="url(#clip-path)">
    <path id="Path_67" data-name="Path 67" d="M30,0A30,30,0,1,0,60,30,29.995,29.995,0,0,0,30,0m0,56.129A26.129,26.129,0,1,1,56.129,30,26.128,26.128,0,0,1,30,56.129M41.468,21.617,33.085,30l8.383,8.383a1.453,1.453,0,0,1,0,2.056L40.44,41.468a1.453,1.453,0,0,1-2.056,0L30,33.085l-8.383,8.383a1.453,1.453,0,0,1-2.056,0L18.532,40.44a1.453,1.453,0,0,1,0-2.056L26.915,30l-8.383-8.383a1.453,1.453,0,0,1,0-2.056l1.028-1.028a1.453,1.453,0,0,1,2.056,0L30,26.915l8.383-8.383a1.453,1.453,0,0,1,2.056,0l1.028,1.028A1.475,1.475,0,0,1,41.468,21.617Z" fill="#fff"/>
  </g>
</svg>
