<svg id="Group_1153" data-name="Group 1153" xmlns="http://www.w3.org/2000/svg" xmlns:xlink="http://www.w3.org/1999/xlink" width="22" height="19.25" viewBox="0 0 22 19.25">
  <defs>
    <clipPath id="clip-path">
      <rect id="Rectangle_46" data-name="Rectangle 46" width="22" height="19.25" fill="#fff"/>
    </clipPath>
  </defs>
  <g id="Group_1153-2" data-name="Group 1153" clip-path="url(#clip-path)">
    <path id="Path_66" data-name="Path 66" d="M19.938,1.375a.688.688,0,0,1,.688.688V17.188a.688.688,0,0,1-.687.688H2.063a.688.688,0,0,1-.687-.687V2.063a.688.688,0,0,1,.688-.687Zm0-1.375H2.063A2.062,2.062,0,0,0,0,2.063V17.188A2.062,2.062,0,0,0,2.063,19.25H19.938A2.062,2.062,0,0,0,22,17.188V2.063A2.062,2.062,0,0,0,19.938,0M5.5,4.125A1.375,1.375,0,1,0,6.875,5.5,1.375,1.375,0,0,0,5.5,4.125m0,4.125A1.375,1.375,0,1,0,6.875,9.625,1.375,1.375,0,0,0,5.5,8.25m0,4.125A1.375,1.375,0,1,0,6.875,13.75,1.375,1.375,0,0,0,5.5,12.375M17.875,6.016V4.984a.258.258,0,0,0-.258-.258H8.508a.258.258,0,0,0-.258.258V6.016a.258.258,0,0,0,.258.258h9.109a.258.258,0,0,0,.258-.258m0,4.125V9.109a.258.258,0,0,0-.258-.258H8.508a.258.258,0,0,0-.258.258v1.031a.258.258,0,0,0,.258.258h9.109a.258.258,0,0,0,.258-.258m0,4.125V13.234a.258.258,0,0,0-.258-.258H8.508a.258.258,0,0,0-.258.258v1.031a.258.258,0,0,0,.258.258h9.109a.258.258,0,0,0,.258-.258" fill="#fff"/>
  </g>
</svg>
