<svg xmlns="http://www.w3.org/2000/svg" width="48" height="48" viewBox="0 0 48 48">
  <g id="Logo_Essential" data-name="Logo Essential" transform="translate(-15 -12)">
    <path id="Vector" d="M27.525,3.278,21.065,9.737l3.168,3.237L22.67,14.633l-1.618-1.618-1.618-1.659L16.2,14.633l-1.563-1.659L17.87,9.737l-4.9-4.855L8.119,9.737l3.237,3.237L9.737,14.633,4.9,9.737,12.329,2.29h9.7l-4.2,4.21,1.6,1.618L25.262,2.29,27.552,0H11.383L1.646,9.737l1.618,1.618L8.119,16.21l1.618,1.618,1.618-1.618,1.618-1.577L14.633,16.2l-1.618,1.618-1.659,1.618,3.278,3.237-1.659,1.563L9.737,21l-4.855,4.9L6.5,27.511l1.618,1.618,1.618,1.618,3.237-3.237,1.659,1.618-4.9,4.841L2.29,26.537v-9.7l4.21,4.21,1.618-1.618L2.29,13.6,0,11.314V27.47l9.737,9.737,1.618-1.618,6.459-6.459-3.182-3.237L16.2,24.233l1.618,1.618,1.618,1.618,3.237-3.237,1.563,1.659L21,29.129l4.841,4.841,3.237-3.237,1.618-1.618-3.237-3.237,1.673-1.646,4.855,4.855-7.447,7.488h-9.7l4.21-4.21-1.618-1.618L13.6,36.576l-2.29,2.29H27.483l9.737-9.737L35.6,27.511l-4.855-4.855-1.618-1.618-1.618,1.618-1.618,1.577L24.233,22.67l1.618-1.618,1.618-1.618L24.233,16.2l1.659-1.563,3.237,3.237,4.841-4.841L32.352,11.41,30.734,9.792l-1.6-1.673-3.237,3.237L24.233,9.737l4.9-4.841,7.447,7.433v9.7l-4.21-4.21-1.618,1.618,5.829,5.829,2.29,2.29V11.4L29.129,1.659l-1.618,1.6ZM11.355,9.737l1.618-1.618,1.659,1.618-1.618,1.618ZM9.737,27.566,8.119,25.893l1.618-1.659,1.618,1.618Zm17.829,1.618L25.947,30.8l-1.714-1.673,1.618-1.618ZM19.433,14.633l1.618,1.618-1.618,1.563L17.815,16.2Zm-4.8,4.8,1.618-1.618,1.618,1.618-1.618,1.618Zm4.8,4.8-1.618-1.618L19.433,21l1.618,1.618Zm4.8-4.8-1.618,1.618-1.563-1.618,1.618-1.618Zm4.855-8.078,1.618,1.618-1.577,1.659-1.618-1.618Z" transform="translate(19.567 16.567)" fill="#bba263"/>
    <path id="Vector-2" data-name="Vector" d="M33.943,0H14.057L0,14.057V33.943L14.057,48H33.943L48,33.943V14.057ZM45.71,33,33,45.71H15L2.29,33V15L15,2.29H33L45.71,15Z" transform="translate(15 12)" fill="#bba263"/>
  </g>
</svg>
